<svg xmlns="http://www.w3.org/2000/svg" width="512" height="512" viewBox="0 0 512 512"><path fill="#008cdb" d="M338.8 136.6c-17.9-11.1-38.8-16.9-56-28.9-15.7-10.9-28.1-27.2-40.3-41.7v0c-2 20.2-8.6 35.5-25.2 47.5-14.7 10.7-31.3 17.5-46.8 26.9-24.1 14.7-44.8 35.6-59.1 60-24.9 42.7-28.4 96.6-9.8 142.4 32.2 79.2 123.5 119.6 204.5 96.5 69.4-19.8 116.1-82.2 116.1-154.3.1-61.3-31.9-116.2-83.4-148.4zm-214 59.3c5.5-7.7 12.9-14.9 16.8-18.8l.8-.8c13.9-13.8 28.2-24.5 43.6-32.9 2.2-1.2 4.3-2.3 6.5-3.5 13.2-7.1 25.7-13.8 35.8-23.1 5.7-5.3 10.7-11.9 13.8-19 2.4-5.6 3.1-11.4 4.4-17.3.1.1.1.2.2.3 1.8 6.5 3.2 13.4 2.8 20.1-.2 3.5-.8 6.9-2.4 10.1-1.5 3.1-7.7 7.2-8.3 10.1-.7 3.6 3.3 7 1.8 12.1-2.3 7.6-9.6 14.8-14.8 20.4-17 18.4-38 32.9-59.7 45.1-8.1 4.5-40.1 27.9-47.8 14.4 0 0 0-.1-.1-.1-1.4-5 2.7-11.8 6.6-17.1zm214.1 214.6c-13.1 13.1-35.9 15.9-53.4 16.3-11 .3-22.5-.3-33-4.1-4.7-1.7-27.1-15.3-10.7-18.5 5.5-1.1 12.4 5.6 17.7 7.4 11.2 3.7 24 4.1 35.7 3.3 10.7-.7 21.7-2.6 31.5-7.1 2.4-1.1 6-4.4 8.5-4.8 4.1-.5 9 2.1 3.7 7.5zm-64.1-33.3c11.9-10.9 28.5-19.5 45.1-12.7 5.2 2.1 11.7 8.9 12 14.9.4 8.6-3.7 8.3-8.4 3.3-8.6-9.2-18.4-13.1-31.6-6.7-5 2.4-8.6 8.2-13.6 10.2-7.3 3.1-9.7-3.3-3.5-9zm55.4-32.6c-16.6-12.9-30.7-3.4-46.8 6.2-20.5 12.1-42.3 28.1-66.7 30.6-20 2-43.6-2.3-53-22.4-11-23.6 1.3-51.2 21.5-65.2 22.3-15.4 49.3-13.4 72.5-1.3 16.9 8.8 33.1 27.5 52 31.4 18.8 3.9 39.3-17.2 53.8-26.3 8.4-5.2 18.2-11.6 28.6-8.4 7.1 2.3 10.4 7.2 12.9 13.9.9 3.3 1.5 7.9 1.3 14.2-.2 10.1-7 39.2-25.3 56-3.7 2.3-10.4 7.3-19.1 2.9-11.7-7.6-22.8-24.7-31.7-31.6z"/></svg>